<?xml version="1.0" encoding="UTF-8" standalone="no"?>
<!DOCTYPE svg PUBLIC "-//W3C//DTD SVG 1.1//EN" "http://www.w3.org/Graphics/SVG/1.1/DTD/svg11.dtd">
<svg width="100%" height="100%" viewBox="0 0 1921 1175" version="1.1" xmlns="http://www.w3.org/2000/svg" xmlns:xlink="http://www.w3.org/1999/xlink" xml:space="preserve" xmlns:serif="http://www.serif.com/" style="fill-rule:evenodd;clip-rule:evenodd;stroke-miterlimit:1.5;">
    <g transform="matrix(1,0,0,1,-50366,-15376)">
        <g id="White-on-black" serif:id="White on black" transform="matrix(0.637873,0,0,0.425829,45526.2,15376.4)">
            <rect x="7587.95" y="0" width="3010.73" height="2756.39" style="fill:rgb(51,51,51);"/>
            <g transform="matrix(3.0987,0,0,4.64171,-142174,-78340.5)">
                <g transform="matrix(0.148909,0,0,0.148909,43146.2,14120.5)">
                    <path d="M38169.6,19225.7C38496.4,19270.6 38748.4,19551.2 38748.4,19890.2C38748.4,20260.4 38447.8,20560.9 38077.6,20560.9C37739.8,20560.9 37459.9,20310.6 37413.6,19985.5L37547.2,19851.2C37546.2,19864.1 37545.8,19877.1 37545.8,19890.2C37545.8,20183.7 37784.1,20422 38077.6,20422C38371.2,20422 38609.5,20183.7 38609.5,19890.2C38609.5,19596.6 38371.2,19358.3 38077.6,19358.3C38063.6,19358.3 38049.7,19358.9 38036,19359.9L38169.6,19225.7ZM38061.2,19219.6L37888.9,19392.8C37746.2,19447.1 37632.8,19561 37579.3,19704L37407,19877.2C37413.8,19518.4 37702.9,19228.2 38061.2,19219.6Z" style="fill:white;"/>
                </g>
                <g transform="matrix(0.141022,0,0,0.124684,43520.4,16057)">
                    <path d="M38739.8,8583.83C38537.3,9037.18 38082.4,9351.38 37554.2,9351.38C37026,9351.38 36571.1,9038.18 36368.6,8584.83" style="fill:none;stroke:white;stroke-width:125px;"/>
                </g>
                <g transform="matrix(1.77994,0,0,1.77994,-118345,10752.9)">
                    <text x="93697.3px" y="3715.13px" style="font-family:'Lato-Regular', 'Lato', sans-serif;font-size:54.633px;fill:white;">OSS CAMER<tspan x="94003.9px " y="3715.13px ">O</tspan>ON</text>
                </g>
            </g>
        </g>
    </g>
</svg>
