<?xml version="1.0" encoding="UTF-8" standalone="no"?>
<!DOCTYPE svg PUBLIC "-//W3C//DTD SVG 1.1//EN" "http://www.w3.org/Graphics/SVG/1.1/DTD/svg11.dtd">
<svg width="100%" height="100%" viewBox="0 0 1921 612" version="1.1" xmlns="http://www.w3.org/2000/svg" xmlns:xlink="http://www.w3.org/1999/xlink" xml:space="preserve" xmlns:serif="http://www.serif.com/" style="fill-rule:evenodd;clip-rule:evenodd;stroke-linejoin:round;stroke-miterlimit:2;">
    <g transform="matrix(1,0,0,1,-56855,-13464)">
        <g id="White-on-transparent" serif:id="White on transparent" transform="matrix(0.637873,0,0,0.221778,52015.2,13464)">
            <rect x="7587.95" y="0" width="3010.73" height="2756.39" style="fill:none;"/>
            <g transform="matrix(0.860682,0,0,2.8291,679.713,-3061.2)">
                <g transform="matrix(0.402106,0,0,0.351845,4922.79,-7793.56)">
                    <text x="9425.12px" y="27011.2px" style="font-family:'Lato-Regular', 'Lato', sans-serif;font-size:871.066px;fill:white;stroke:white;stroke-width:4.53px;">SS CAMER<tspan x="13616.3px " y="27011.2px ">O</tspan>ON</text>
                </g>
                <g transform="matrix(-0.380834,0.333231,-0.241789,-0.211567,12077.6,-1223.69)">
                    <g transform="matrix(-0.252927,-0.398376,0.252927,-0.398376,13456.8,23686.5)">
                        <path d="M38169.6,19225.7C38496.4,19270.6 38748.4,19551.2 38748.4,19890.2C38748.4,20260.4 38447.8,20560.9 38077.6,20560.9C37739.8,20560.9 37459.9,20310.6 37413.6,19985.5L37547.2,19851.2C37546.2,19864.1 37545.8,19877.1 37545.8,19890.2C37545.8,20183.7 37784.1,20422 38077.6,20422C38371.2,20422 38609.5,20183.7 38609.5,19890.2C38609.5,19596.6 38371.2,19358.3 38077.6,19358.3C38063.6,19358.3 38049.7,19358.9 38036,19359.9L38169.6,19225.7ZM38061.2,19219.6L37888.9,19392.8C37746.2,19447.1 37632.8,19561 37579.3,19704L37407,19877.2C37413.8,19518.4 37702.9,19228.2 38061.2,19219.6Z" style="fill:white;"/>
                    </g>
                    <g transform="matrix(0.338747,0,0,0.471735,-3864.65,-3285.61)">
                        <path d="M38739.8,8583.83C38537.3,9037.18 38082.4,9351.38 37554.2,9351.38C37026,9351.38 36571.1,9038.18 36368.6,8584.83" style="fill:none;stroke:white;stroke-width:125px;stroke-linecap:square;stroke-miterlimit:1.5;"/>
                    </g>
                </g>
            </g>
        </g>
    </g>
</svg>
